<svg width="40" height="41" viewBox="0 0 40 41" fill="none" xmlns="http://www.w3.org/2000/svg">
<path d="M6.66669 33.3125V7.68751C6.66669 6.55481 7.10567 5.46851 7.88708 4.66757C8.66848 3.86663 9.72829 3.41667 10.8334 3.41667H31.6667C32.1087 3.41667 32.5326 3.59666 32.8452 3.91703C33.1578 4.23741 33.3334 4.67193 33.3334 5.12501V35.875C33.3334 36.3281 33.1578 36.7626 32.8452 37.083C32.5326 37.4034 32.1087 37.5833 31.6667 37.5833H10.8334C9.72829 37.5833 8.66848 37.1334 7.88708 36.3324C7.10567 35.5315 6.66669 34.4452 6.66669 33.3125C6.66669 32.1798 7.10567 31.0935 7.88708 30.2926C8.66848 29.4916 9.72829 29.0417 10.8334 29.0417H33.3334" fill="#FAFAFA"/>
<path d="M6.66669 33.3125V7.68751C6.66669 6.55481 7.10567 5.46851 7.88708 4.66757C8.66848 3.86663 9.72829 3.41667 10.8334 3.41667H31.6667C32.1087 3.41667 32.5326 3.59666 32.8452 3.91703C33.1578 4.23741 33.3334 4.67193 33.3334 5.12501V35.875C33.3334 36.3281 33.1578 36.7626 32.8452 37.083C32.5326 37.4034 32.1087 37.5833 31.6667 37.5833H10.8334C9.72829 37.5833 8.66848 37.1334 7.88708 36.3324C7.10567 35.5315 6.66669 34.4452 6.66669 33.3125ZM6.66669 33.3125C6.66669 32.1798 7.10567 31.0935 7.88708 30.2926C8.66848 29.4916 9.72829 29.0417 10.8334 29.0417H33.3334" stroke="black" stroke-width="2" stroke-linecap="round" stroke-linejoin="round"/>
<path d="M14.0436 15.5044C13.693 15.1297 13.4201 14.6861 13.2413 14.2003C13.0625 13.7145 12.9816 13.1966 13.0035 12.6779C13.0254 12.1592 13.1495 11.6504 13.3685 11.1822C13.5875 10.714 13.8967 10.2961 14.2775 9.95379C14.6584 9.61147 15.1029 9.35178 15.5844 9.19039C16.0659 9.02901 16.5742 8.96928 17.0788 9.0148C17.5834 9.06033 18.0738 9.21017 18.5203 9.45527C18.9668 9.70038 19.3603 10.0357 19.677 10.4409C19.9951 10.0399 20.389 9.70878 20.8349 9.46736C21.2808 9.22594 21.7696 9.07919 22.2721 9.03588C22.7746 8.99256 23.2805 9.05359 23.7595 9.21529C24.2385 9.377 24.6807 9.63606 25.0597 9.977C25.4388 10.3179 25.7468 10.7337 25.9655 11.1995C26.1842 11.6653 26.3089 12.1715 26.3323 12.6878C26.3557 13.2042 26.2772 13.72 26.1016 14.2046C25.926 14.6891 25.6569 15.1324 25.3103 15.5078L20.9336 20.3868C20.7775 20.5711 20.5846 20.7189 20.3679 20.8202C20.1513 20.9214 19.9159 20.9738 19.6778 20.9738C19.4397 20.9738 19.2043 20.9214 18.9877 20.8202C18.771 20.7189 18.5781 20.5711 18.422 20.3868L14.0436 15.5044Z" fill="#F6C1CC" stroke="black" stroke-width="2" stroke-linecap="round" stroke-linejoin="round"/>
</svg>
