<svg width="68" height="68" viewBox="0 0 68 68" fill="none" xmlns="http://www.w3.org/2000/svg">
<path d="M34 17V34L45.3333 39.6667" stroke="#FAABCB" stroke-width="3" stroke-linecap="round" stroke-linejoin="round"/>
<path d="M62.3334 34C62.3333 28.517 60.7423 23.1518 57.7534 18.5551C54.7645 13.9584 50.506 10.3277 45.4945 8.10335C40.483 5.87896 34.9337 5.15647 29.5197 6.02348C24.1057 6.8905 19.0596 9.30977 14.9933 12.9879C10.927 16.666 8.01534 21.445 6.61134 26.7452C5.20733 32.0453 5.37135 37.639 7.0835 42.8479C8.79565 48.0567 11.9824 52.6568 16.2572 56.0904C20.532 59.5239 25.7112 61.6434 31.1667 62.1917" stroke="black" stroke-width="3" stroke-linecap="round" stroke-linejoin="round"/>
<path d="M62.3334 45.3333L46.75 60.9166L39.6667 53.8333" stroke="black" stroke-width="3" stroke-linecap="round" stroke-linejoin="round"/>
</svg>
